<svg width="83" height="84" viewBox="0 0 83 84" fill="none" xmlns="http://www.w3.org/2000/svg">
<path d="M19.7012 46.3813C21.2492 43.7002 23.1483 41.7787 25.3987 40.617C27.6614 39.4625 30.1202 39.0198 32.775 39.2888C35.4297 39.5579 38.1351 40.488 40.8912 42.0792C43.6472 43.6704 45.8054 45.5483 47.3658 47.7128C48.9261 49.8774 49.7659 52.2245 49.8849 54.7542C50.0166 57.2911 49.3083 59.9002 47.7603 62.5813C45.9531 65.7115 43.6728 67.8036 40.9193 68.8577C38.1782 69.919 35.2484 70.0398 32.13 69.2204L33.0204 65.9933C35.4841 66.6509 37.7679 66.5976 39.8718 65.8336C41.9757 65.0695 43.7261 63.4778 45.1229 61.0585C46.3397 58.951 46.8711 56.9216 46.7173 54.9706C46.5633 53.0194 45.8312 51.1916 44.5206 49.4872C43.2153 47.8024 41.4475 46.2996 39.2172 44.9786C36.9797 43.6702 34.805 42.8719 32.6934 42.5838C30.5744 42.3083 28.6218 42.5943 26.8355 43.4419C25.0544 44.3091 23.5555 45.7966 22.3387 47.9041C20.9419 50.3234 20.4386 52.6351 20.829 54.8392C21.2317 57.0504 22.3274 59.0549 24.1163 60.8525L21.7668 63.2372C19.4979 60.9462 18.1315 58.345 17.6676 55.4333C17.2161 52.5288 17.894 49.5115 19.7012 46.3813Z" fill="#222222"/>
<path d="M62.8604 36.6194C61.3124 39.3007 59.4133 41.2222 57.1629 42.3838C54.9002 43.5383 52.4414 43.981 49.7867 43.712C47.1319 43.443 44.4265 42.5129 41.6705 40.9217C38.9144 39.3305 36.7562 37.4526 35.1959 35.288C33.6355 33.1234 32.7957 30.7763 32.6766 28.2466C32.5451 25.7098 33.2532 23.1007 34.8012 20.4194C36.6084 17.2894 38.8887 15.1972 41.6423 14.1432C44.3834 13.0819 47.3131 12.961 50.4317 13.7804L49.5411 17.0076C47.0774 16.35 44.7937 16.4033 42.6897 17.1673C40.5859 17.9312 38.8356 19.5229 37.4388 21.9422C36.222 24.0498 35.6905 26.0792 35.8443 28.0303C35.9982 29.9814 36.7304 31.8092 38.0409 33.5136C39.3463 35.1984 41.1141 36.7013 43.3445 38.0222C45.582 39.3307 47.7566 40.129 49.8683 40.417C51.9872 40.6925 53.9397 40.4065 55.7261 39.559C57.5071 38.6916 59.006 37.2042 60.2228 35.0966C61.6196 32.6773 62.1229 30.3656 61.7327 28.1617C61.33 25.9505 60.2341 23.946 58.4453 22.1484L60.7949 19.7636C63.0637 22.0546 64.4301 24.6559 64.8941 27.5676C65.3455 30.472 64.6676 33.4894 62.8604 36.6194Z" fill="#222222"/>
<path d="M34.7181 62.6293C33.1701 59.948 32.4556 57.3426 32.5748 54.813C32.7063 52.2761 33.5523 49.9254 35.1127 47.7608C36.673 45.5962 38.8312 43.7183 41.5873 42.1271C44.3433 40.5359 47.0487 39.6058 49.7035 39.3368C52.3582 39.0678 54.8108 39.5141 57.061 40.6758C59.3239 41.8302 61.2292 43.748 62.7772 46.4293C64.5844 49.5595 65.2561 52.5804 64.7922 55.4921C64.3407 58.3964 62.9805 60.9942 60.7117 63.2851L58.3621 60.9005C60.1634 59.0956 61.2592 57.0912 61.6495 54.8872C62.0398 52.6831 61.5366 50.3714 60.1398 47.9521C58.923 45.8446 57.4312 44.3696 55.6646 43.5272C53.8978 42.685 51.9489 42.4051 49.8175 42.688C47.7058 42.976 45.5204 43.7555 43.2613 45.0266C41.0093 46.3102 39.2307 47.7942 37.9255 49.479C36.6273 51.1763 35.8987 53.0102 35.7395 54.9811C35.6001 56.9572 36.1388 58.999 37.3556 61.1065C38.7524 63.5258 40.5027 65.1175 42.6067 65.8816C44.723 66.6384 47.0068 66.6916 49.458 66.0413L50.3485 69.2683C47.23 70.0878 44.294 69.9704 41.5405 68.9165C38.7994 67.8552 36.5253 65.7595 34.7181 62.6293Z" fill="#222222"/>
<path d="M47.8435 20.3714C49.3915 23.0527 50.106 25.6582 49.9868 28.1878C49.8553 30.7247 49.0093 33.0753 47.4489 35.2399C45.8886 37.4045 43.7304 39.2825 40.9743 40.8737C38.2183 42.4649 35.5129 43.3949 32.8581 43.6639C30.2034 43.933 27.7508 43.4867 25.5005 42.325C23.2377 41.1706 21.3323 39.2527 19.7843 36.5714C17.9771 33.4412 17.3054 30.4204 17.7693 27.5087C18.2209 24.6043 19.581 22.0066 21.8499 19.7156L24.1994 22.1003C22.3981 23.9052 21.3024 25.9096 20.912 28.1136C20.5218 30.3176 21.0251 32.6293 22.4219 35.0486C23.6387 37.1562 25.1304 38.6311 26.897 39.4735C28.6637 40.3158 30.6127 40.5956 32.744 40.3128C34.8558 40.0248 37.0412 39.2453 39.3003 37.9741C41.5523 36.6906 43.3309 35.2064 44.6361 33.5217C45.9343 31.8245 46.6628 29.9905 46.8219 28.0196C46.9614 26.0436 46.4227 24.0018 45.2059 21.8942C43.8091 19.4749 42.0588 17.8832 39.9549 17.1192C37.8386 16.3623 35.5548 16.3092 33.1035 16.9595L32.2131 13.7324C35.3316 12.9129 38.2676 13.0303 41.0211 14.0843C43.7622 15.1456 46.0363 17.2412 47.8435 20.3714Z" fill="#222222"/>
<path d="M56.2976 57.7483C53.2016 57.7483 50.588 57.0643 48.4568 55.6963C46.3256 54.3139 44.7128 52.4059 43.6184 49.9723C42.524 47.5387 41.9768 44.7307 41.9768 41.5483C41.9768 38.3659 42.524 35.5579 43.6184 33.1243C44.7128 30.6907 46.3256 28.7899 48.4568 27.4219C50.588 26.0395 53.2016 25.3483 56.2976 25.3483C59.912 25.3483 62.864 26.2771 65.1536 28.1347C67.4432 29.9779 69.0128 32.4547 69.8624 35.5651L66.6224 36.4075C65.96 33.9451 64.772 31.9939 63.0584 30.5539C61.3448 29.1139 59.0912 28.3939 56.2976 28.3939C53.864 28.3939 51.8408 28.9483 50.228 30.0571C48.6152 31.1659 47.3984 32.7139 46.5776 34.7011C45.7712 36.6739 45.3536 38.9563 45.3248 41.5483C45.3104 44.1403 45.7064 46.4227 46.5128 48.3955C47.3336 50.3683 48.5576 51.9163 50.1848 53.0395C51.8264 54.1483 53.864 54.7027 56.2976 54.7027C59.0912 54.7027 61.3448 53.9827 63.0584 52.5427C64.772 51.0883 65.96 49.1371 66.6224 46.6891L69.8624 47.5315C69.0128 50.6419 67.4432 53.1259 65.1536 54.9835C62.864 56.8267 59.912 57.7483 56.2976 57.7483Z" fill="#222222"/>
<path d="M26.264 25.2523C29.36 25.2523 31.9736 25.9363 34.1048 27.3043C36.236 28.6867 37.8488 30.5947 38.9432 33.0283C40.0376 35.4619 40.5848 38.2699 40.5848 41.4523C40.5848 44.6347 40.0376 47.4427 38.9432 49.8763C37.8488 52.3099 36.236 54.2107 34.1048 55.5787C31.9736 56.9611 29.36 57.6523 26.264 57.6523C22.6496 57.6523 19.6976 56.7235 17.408 54.866C15.1184 53.0227 13.5488 50.5459 12.6992 47.4355L15.9392 46.5931C16.6016 49.0555 17.7896 51.0068 19.5032 52.4468C21.2168 53.8868 23.4704 54.6068 26.264 54.6068C28.6976 54.6068 30.7208 54.0524 32.3336 52.9436C33.9464 51.8348 35.1632 50.2867 35.984 48.2995C36.7904 46.3267 37.208 44.0443 37.2368 41.4523C37.2512 38.8603 36.8552 36.5779 36.0488 34.6051C35.228 32.6323 34.004 31.0843 32.3768 29.9611C30.7352 28.8523 28.6976 28.2979 26.264 28.2979C23.4704 28.2979 21.2168 29.0179 19.5032 30.4579C17.7896 31.9123 16.6016 33.8635 15.9392 36.3115L12.6992 35.4691C13.5488 32.3587 15.1184 29.8747 17.408 28.0171C19.6976 26.1739 22.6496 25.2523 26.264 25.2523Z" fill="#222222"/>
</svg>
