<svg width="72" height="72" viewBox="0 0 72 72" fill="none" xmlns="http://www.w3.org/2000/svg">
  <style>
    .favicon__bg {
      fill: #141414;
    }

    .favicon__stroke {
      fill: #FCFCFC;
    }
  </style>

  <rect width="72" height="72" rx="10" class="favicon__bg" />
  <path d="M18.4177 39.6511C19.7077 37.4168 21.2903 35.8156 23.1656 34.8475C25.0512 33.8854 27.1002 33.5165 29.3125 33.7407C31.5248 33.9649 33.7793 34.74 36.076 36.066C38.3727 37.392 40.1712 38.9569 41.4715 40.7607C42.7718 42.5645 43.4716 44.5204 43.5708 46.6285C43.6805 48.7426 43.0903 50.9168 41.8003 53.1511C40.2943 55.7596 38.394 57.503 36.0994 58.3814C33.8152 59.2658 31.3737 59.3665 28.775 58.6837L29.517 55.9944C31.5701 56.5424 33.4733 56.498 35.2265 55.8613C36.9798 55.2246 38.4384 53.8982 39.6024 51.8821C40.6164 50.1258 41.0593 48.4347 40.9311 46.8088C40.8028 45.1828 40.1927 43.6597 39.1005 42.2393C38.0128 40.8353 36.5396 39.583 34.681 38.4822C32.8164 37.3918 31.0042 36.7266 29.2445 36.4865C27.4787 36.2569 25.8515 36.4953 24.3629 37.2016C22.8787 37.9243 21.6296 39.1638 20.6156 40.9201C19.4516 42.9362 19.0322 44.8626 19.3575 46.6993C19.6931 48.542 20.6062 50.2124 22.0969 51.7104L20.139 53.6977C18.2483 51.7885 17.1096 49.6208 16.723 47.1944C16.3468 44.774 16.9117 42.2596 18.4177 39.6511Z" class="favicon__stroke" />
  <path d="M54.3836 31.5162C53.0936 33.7506 51.511 35.3518 49.6357 36.3198C47.7501 37.2819 45.7011 37.6508 43.4888 37.4267C41.2765 37.2025 39.022 36.4274 36.7253 35.1014C34.4286 33.7754 32.6301 32.2105 31.3298 30.4067C30.0295 28.6028 29.3297 26.6469 29.2304 24.5388C29.1208 22.4248 29.7109 20.2506 31.0009 18.0162C32.5069 15.4078 34.4072 13.6643 36.7018 12.786C38.9861 11.9016 41.4275 11.8008 44.0263 12.4837L43.2842 15.173C41.2311 14.625 39.328 14.6694 37.5747 15.3061C35.8215 15.9427 34.3629 17.2691 33.1989 19.2852C32.1849 21.0415 31.742 22.7327 31.8702 24.3586C31.9984 25.9845 32.6086 27.5077 33.7007 28.928C34.7885 30.332 36.2617 31.5844 38.1203 32.6852C39.9849 33.7756 41.7971 34.4408 43.5568 34.6808C45.3226 34.9104 46.9497 34.6721 48.4383 33.9658C49.9225 33.243 51.1716 32.0035 52.1856 30.2472C53.3496 28.2311 53.769 26.3047 53.4438 24.4681C53.1082 22.6254 52.195 20.955 50.7043 19.457L52.6623 17.4697C54.553 19.3788 55.6917 21.5466 56.0783 23.973C56.4545 26.3933 55.8896 28.9078 54.3836 31.5162Z" class="favicon__stroke" />
  <path d="M30.9317 53.1911C29.6417 50.9567 29.0463 48.7855 29.1456 46.6775C29.2552 44.5634 29.9602 42.6045 31.2605 40.8007C32.5608 38.9968 34.3593 37.4319 36.656 36.1059C38.9527 34.7799 41.2072 34.0048 43.4195 33.7807C45.6318 33.5565 47.6756 33.9284 49.5508 34.8965C51.4365 35.8585 53.0243 37.4567 54.3143 39.6911C55.8203 42.2996 56.38 44.817 55.9934 47.2434C55.6172 49.6637 54.4837 51.8285 52.593 53.7376L50.635 51.7504C52.1361 50.2463 53.0493 48.576 53.3745 46.7393C53.6998 44.9026 53.2804 42.9762 52.1164 40.9601C51.1024 39.2038 49.8593 37.9747 48.3871 37.2727C46.9148 36.5708 45.2907 36.3376 43.5145 36.5733C41.7548 36.8133 39.9336 37.4629 38.051 38.5222C36.1744 39.5918 34.6922 40.8285 33.6045 42.2325C32.5227 43.6469 31.9155 45.1752 31.7829 46.8176C31.6667 48.4643 32.1156 50.1658 33.1296 51.9221C34.2936 53.9382 35.7522 55.2646 37.5055 55.9013C39.2691 56.532 41.1723 56.5763 43.2149 56.0344L43.957 58.7236C41.3583 59.4065 38.9116 59.3087 36.617 58.4304C34.3328 57.546 32.4377 55.7996 30.9317 53.1911Z" class="favicon__stroke" />
  <path d="M41.8696 17.9762C43.1596 20.2106 43.755 22.3818 43.6557 24.4898C43.5461 26.6039 42.8411 28.5628 41.5408 30.3666C40.2405 32.1704 38.442 33.7354 36.1453 35.0614C33.8486 36.3874 31.5941 37.1624 29.3818 37.3866C27.1695 37.6108 25.1257 37.2389 23.2504 36.2708C21.3648 35.3088 19.7769 33.7106 18.4869 31.4762C16.9809 28.8677 16.4212 26.3503 16.8078 23.9239C17.1841 21.5036 18.3175 19.3388 20.2083 17.4297L22.1662 19.4169C20.6651 20.921 19.752 22.5913 19.4267 24.428C19.1015 26.2647 19.5209 28.1911 20.6849 30.2072C21.6989 31.9635 22.942 33.1926 24.4142 33.8946C25.8864 34.5965 27.5106 34.8297 29.2867 34.594C31.0465 34.354 32.8677 33.7044 34.7503 32.6451C36.6269 31.5755 38.1091 30.3387 39.1968 28.9348C40.2786 27.5204 40.8857 25.9921 41.0183 24.3497C41.1345 22.703 40.6856 21.0015 39.6716 19.2452C38.5076 17.2291 37.049 15.9027 35.2958 15.266C33.5322 14.6353 31.629 14.591 29.5863 15.1329L28.8443 12.4437C31.443 11.7608 33.8897 11.8586 36.1843 12.7369C38.4685 13.6213 40.3636 15.3677 41.8696 17.9762Z" class="favicon__stroke" />
  <path d="M48.9146 49.1236C46.3346 49.1236 44.1566 48.5536 42.3806 47.4136C40.6046 46.2616 39.2606 44.6716 38.3486 42.6436C37.4366 40.6156 36.9806 38.2756 36.9806 35.6236C36.9806 32.9716 37.4366 30.6316 38.3486 28.6036C39.2606 26.5756 40.6046 24.9916 42.3806 23.8516C44.1566 22.6996 46.3346 22.1236 48.9146 22.1236C51.9266 22.1236 54.3866 22.8976 56.2946 24.4456C58.2026 25.9816 59.5106 28.0456 60.2186 30.6376L57.5186 31.3396C56.9666 29.2876 55.9766 27.6616 54.5486 26.4616C53.1206 25.2616 51.2426 24.6616 48.9146 24.6616C46.8866 24.6616 45.2006 25.1236 43.8566 26.0476C42.5126 26.9716 41.4986 28.2616 40.8146 29.9176C40.1426 31.5616 39.7946 33.4636 39.7706 35.6236C39.7586 37.7836 40.0886 39.6856 40.7606 41.3296C41.4446 42.9736 42.4646 44.2636 43.8206 45.1996C45.1886 46.1236 46.8866 46.5856 48.9146 46.5856C51.2426 46.5856 53.1206 45.9856 54.5486 44.7856C55.9766 43.5736 56.9666 41.9476 57.5186 39.9076L60.2186 40.6096C59.5106 43.2016 58.2026 45.2716 56.2946 46.8196C54.3866 48.3556 51.9266 49.1236 48.9146 49.1236Z" class="favicon__stroke" />
  <path d="M23.8866 22.0436C26.4666 22.0436 28.6446 22.6136 30.4206 23.7536C32.1966 24.9056 33.5406 26.4956 34.4526 28.5236C35.3646 30.5516 35.8206 32.8916 35.8206 35.5436C35.8206 38.1956 35.3646 40.5356 34.4526 42.5636C33.5406 44.5916 32.1966 46.1756 30.4206 47.3156C28.6446 48.4676 26.4666 49.0436 23.8866 49.0436C20.8746 49.0436 18.4146 48.2696 16.5066 46.7217C14.5986 45.1856 13.2906 43.1216 12.5826 40.5296L15.2826 39.8276C15.8346 41.8796 16.8246 43.5057 18.2526 44.7057C19.6806 45.9057 21.5586 46.5057 23.8866 46.5057C25.9146 46.5057 27.6006 46.0437 28.9446 45.1197C30.2886 44.1957 31.3026 42.9056 31.9866 41.2496C32.6586 39.6056 33.0066 37.7036 33.0306 35.5436C33.0426 33.3836 32.7126 31.4816 32.0406 29.8376C31.3566 28.1936 30.3366 26.9036 28.9806 25.9676C27.6126 25.0436 25.9146 24.5816 23.8866 24.5816C21.5586 24.5816 19.6806 25.1816 18.2526 26.3816C16.8246 27.5936 15.8346 29.2196 15.2826 31.2596L12.5826 30.5576C13.2906 27.9656 14.5986 25.8956 16.5066 24.3476C18.4146 22.8116 20.8746 22.0436 23.8866 22.0436Z" class="favicon__stroke" />
</svg>
